<?xml version="1.0" standalone="no"?>
<!DOCTYPE svg PUBLIC "-//W3C//DTD SVG 20010904//EN"
 "http://www.w3.org/TR/2001/REC-SVG-20010904/DTD/svg10.dtd">
<svg version="1.0" xmlns="http://www.w3.org/2000/svg"
 width="1280.000000pt" height="853.000000pt" viewBox="0 0 1280.000000 853.000000"
 preserveAspectRatio="xMidYMid meet">
<metadata>
Created by potrace 1.15, written by Peter Selinger 2001-2017
</metadata>
<g transform="translate(0.000000,853.000000) scale(0.100000,-0.100000)"
fill="#000000" stroke="none">
<path d="M10135 7674 c-737 -470 -1361 -868 -1387 -884 l-46 -29 -110 172
c-60 95 -112 177 -115 183 -4 6 3 34 13 63 25 64 26 160 3 227 -22 65 -95 136
-168 163 -89 34 -227 25 -284 -16 -43 -32 -106 -134 -119 -195 -24 -103 2
-222 60 -275 38 -35 140 -81 196 -89 29 -4 59 -13 67 -20 7 -7 95 -142 195
-299 100 -157 184 -285 187 -285 6 0 3333 2118 3347 2131 6 5 -102 9 -245 9
l-254 -1 -1340 -855z m-1826 -204 c135 -68 132 -264 -4 -330 -112 -54 -239 8
-266 130 -17 75 22 156 96 201 41 26 124 25 174 -1z"/>
<path d="M10332 7400 c-975 -622 -1776 -1130 -1780 -1130 -5 0 -53 70 -107
156 -100 157 -121 180 -156 171 -10 -3 -260 -159 -555 -347 l-536 -342 -64 18
c-47 12 -84 15 -140 11 -109 -8 -155 -38 -208 -137 -40 -74 -41 -77 -40 -175
0 -114 11 -142 71 -195 87 -77 212 -106 317 -76 109 32 192 141 203 266 l6 61
56 38 c76 51 790 505 818 520 21 11 25 7 60 -46 111 -176 167 -259 177 -265
21 -14 61 -8 101 15 38 22 3997 2544 4040 2573 17 12 -17 14 -235 14 l-255 0
-1773 -1130z m-3234 -1553 c101 -37 148 -153 103 -252 -49 -109 -184 -144
-283 -74 -54 39 -84 127 -67 194 29 110 141 170 247 132z"/>
<path d="M10695 7199 c-1150 -732 -2106 -1348 -2126 -1368 l-37 -36 88 -137
89 -137 -152 -97 c-195 -123 -217 -140 -217 -166 0 -11 45 -92 101 -179 57
-90 99 -165 96 -173 -6 -15 -110 -86 -126 -86 -5 0 -56 76 -115 168 -124 196
-137 212 -175 212 -31 0 -43 -7 -689 -420 l-413 -263 -53 16 c-73 23 -172 22
-240 -3 -98 -37 -175 -144 -184 -258 -5 -60 -6 -64 -46 -91 -74 -50 -815 -521
-828 -526 -8 -3 -33 27 -65 77 -46 74 -50 84 -35 94 65 44 465 296 485 305 20
9 36 7 86 -11 81 -30 167 -24 240 15 56 31 91 71 124 143 29 65 28 191 -2 250
-32 62 -124 123 -206 137 -22 4 -69 21 -105 38 -58 29 -72 32 -155 31 -101 0
-136 -13 -179 -65 -42 -50 -77 -126 -83 -182 -3 -29 -13 -60 -21 -70 -15 -17
-379 -253 -405 -262 -10 -4 -147 199 -147 218 0 3 23 20 51 38 l51 32 57 -19
c77 -26 181 -25 242 3 102 46 162 142 167 268 7 144 -27 206 -144 266 -58 29
-80 35 -152 38 -61 2 -95 -1 -127 -14 -80 -30 -143 -123 -168 -245 -12 -63
-15 -66 -70 -104 -31 -22 -58 -38 -60 -35 -2 2 -34 52 -71 111 -37 59 -74 112
-82 119 -25 20 -94 -18 -469 -256 -202 -130 -360 -224 -365 -219 -4 5 -62 93
-127 196 l-120 187 19 72 c25 102 16 194 -26 258 -25 36 -47 54 -110 86 -73
37 -84 40 -160 39 -44 0 -97 -6 -117 -13 -50 -16 -98 -66 -134 -137 -27 -53
-30 -68 -30 -154 0 -78 4 -102 22 -136 44 -82 134 -140 239 -153 36 -4 71 -14
79 -22 7 -8 65 -95 128 -194 104 -162 114 -181 99 -193 -9 -7 -873 -558 -1919
-1225 l-1903 -1212 0 -177 c0 -98 3 -178 6 -178 5 0 2057 1306 4183 2662 326
209 595 377 597 375 3 -2 -150 -102 -338 -222 -189 -120 -351 -225 -360 -233
-10 -8 -18 -27 -18 -41 0 -17 88 -164 245 -410 135 -211 242 -387 238 -391 -4
-4 -1031 -659 -2280 -1455 l-2273 -1448 0 -119 0 -119 193 3 192 3 2194 1399
2194 1399 19 -23 c10 -13 17 -28 15 -33 -2 -6 -968 -625 -2146 -1376 l-2144
-1366 252 -3 252 -2 2042 1301 c1123 715 2057 1315 2075 1332 17 17 32 35 32
41 0 8 -27 52 -133 218 l-37 56 144 91 c196 124 226 147 226 171 0 12 -45 91
-100 177 -55 86 -100 162 -100 169 0 13 110 94 127 94 4 0 60 -81 123 -181 63
-100 123 -185 132 -190 9 -5 28 -9 43 -9 17 0 210 118 561 342 525 334 537
341 568 330 99 -36 206 -33 286 8 83 42 149 148 159 255 l6 60 435 277 435
278 20 -25 c11 -13 36 -51 56 -83 l37 -58 -256 -164 -256 -163 -41 12 c-94 28
-123 32 -174 27 -165 -19 -271 -175 -242 -356 7 -44 19 -75 39 -99 30 -39 159
-111 199 -111 13 0 52 -14 86 -32 110 -55 250 -50 322 13 44 39 94 139 102
206 4 34 13 59 27 71 33 30 399 261 407 256 4 -2 37 -52 74 -110 l68 -106 -24
-19 c-13 -10 -38 -26 -56 -36 -31 -16 -35 -16 -85 2 -62 23 -163 25 -222 5
-48 -15 -119 -79 -151 -134 -33 -58 -47 -138 -36 -212 16 -106 53 -152 166
-206 52 -24 72 -28 148 -28 67 0 97 5 126 19 75 39 131 126 154 241 12 63 15
66 67 102 30 20 58 34 61 32 4 -2 39 -56 79 -119 45 -71 78 -115 89 -115 35 1
117 49 459 267 196 125 357 222 361 217 24 -26 241 -376 241 -389 0 -8 -7 -40
-15 -72 -24 -88 -12 -191 29 -251 80 -119 298 -169 423 -96 43 25 94 96 119
167 19 53 18 153 -3 212 -33 99 -158 185 -267 185 -31 0 -48 6 -63 23 -15 16
-178 267 -236 363 -4 8 513 343 1458 945 l1465 934 0 178 c0 97 -2 177 -5 177
-3 0 -873 -553 -1933 -1228 -1060 -676 -1934 -1232 -1942 -1236 -13 -8 -13 -7
0 6 8 9 166 111 350 228 184 117 343 220 353 228 9 8 17 26 17 39 0 15 -97
177 -246 410 -135 212 -242 389 -237 393 4 4 826 528 1826 1164 l1817 1158 0
235 c0 184 -3 234 -12 230 -7 -2 -872 -552 -1923 -1222 -1050 -670 -1915
-1220 -1922 -1222 -6 -3 -19 8 -29 22 -17 26 -17 28 1 41 10 8 889 568 1952
1246 l1933 1232 0 158 c0 87 -4 158 -8 158 -4 0 -948 -599 -2097 -1331z
m-1590 -2303 c99 -156 180 -290 180 -297 0 -11 -499 -339 -517 -339 -7 0 -151
221 -146 224 2 1 91 58 198 125 206 130 233 152 223 179 -4 9 -49 83 -100 163
-51 81 -93 153 -93 162 0 14 56 67 70 67 3 -1 86 -128 185 -284z m-5496 174
c133 -68 132 -264 -1 -329 -130 -63 -271 23 -271 164 0 75 47 148 113 174 42
17 118 13 159 -9z m1975 -211 c40 -26 86 -107 86 -149 0 -145 -162 -238 -286
-165 -126 74 -121 259 10 325 56 29 140 24 190 -11z m1385 -469 c100 -57 117
-177 38 -267 -109 -124 -317 -52 -317 110 0 69 36 126 101 160 62 33 115 32
178 -3z m617 -159 c64 -29 97 -80 102 -156 5 -81 -22 -135 -87 -173 -85 -50
-179 -30 -245 51 -28 35 -31 46 -31 106 0 56 4 74 27 108 50 75 149 103 234
64z m-2568 -132 c40 -61 72 -112 70 -114 -2 -1 -91 -57 -198 -125 -203 -128
-235 -153 -225 -179 3 -8 48 -81 100 -162 52 -81 95 -154 95 -163 0 -14 -67
-73 -74 -65 -21 21 -365 576 -363 583 3 10 505 336 517 336 3 0 38 -50 78
-111z m3280 -154 c49 -21 81 -52 103 -100 64 -138 -65 -294 -211 -256 -93 25
-144 93 -143 189 0 68 39 127 103 160 52 26 96 28 148 7z m1949 -227 c18 -5
45 -24 61 -43 137 -155 -27 -381 -214 -296 -129 59 -144 250 -25 323 58 37 99
40 178 16z"/>
<path d="M6605 3124 c-11 -3 -39 -13 -63 -21 -86 -32 -172 -165 -172 -267 0
-29 -6 -48 -17 -58 -45 -38 -874 -558 -882 -553 -5 3 -49 67 -97 143 -47 75
-96 147 -107 160 -22 24 -56 28 -90 11 -12 -7 -913 -579 -2001 -1273 l-1980
-1261 252 -3 251 -2 1708 1088 c940 599 1718 1094 1730 1100 26 14 29 12 133
-153 98 -154 106 -165 135 -165 13 0 249 144 526 321 653 416 578 374 639 354
37 -12 75 -16 134 -14 116 5 164 36 219 137 46 85 57 161 37 256 -14 71 -65
128 -151 169 -54 27 -158 42 -204 31z m171 -144 c19 -12 46 -42 60 -66 22 -38
26 -54 22 -103 -7 -105 -81 -175 -183 -175 -102 0 -176 70 -183 175 -4 49 0
65 21 102 27 45 60 73 106 88 40 13 119 2 157 -21z"/>
<path d="M3449 1042 l-1626 -1037 252 -3 252 -2 1249 796 c687 438 1290 822
1341 854 l91 59 111 -175 c61 -96 111 -183 111 -193 0 -10 -7 -38 -15 -62 -17
-48 -21 -127 -10 -180 33 -152 181 -238 368 -215 70 9 112 37 159 106 50 73
70 153 61 243 -9 101 -44 150 -143 200 -41 20 -99 41 -129 45 l-55 7 -188 295
c-104 162 -191 296 -196 297 -4 1 -739 -465 -1633 -1035z m2166 294 c71 -55
94 -151 54 -234 -52 -106 -196 -134 -290 -55 -94 79 -81 234 26 299 34 21 50
24 106 22 55 -3 73 -9 104 -32z"/>
</g>
</svg>
